<?xml version="1.0" encoding="UTF-8" standalone="no"?>
<!-- Created with Inkscape (http://www.inkscape.org/) -->
<svg
   xmlns:dc="http://purl.org/dc/elements/1.1/"
   xmlns:cc="http://creativecommons.org/ns#"
   xmlns:rdf="http://www.w3.org/1999/02/22-rdf-syntax-ns#"
   xmlns:svg="http://www.w3.org/2000/svg"
   xmlns="http://www.w3.org/2000/svg"
   xmlns:xlink="http://www.w3.org/1999/xlink"
   xmlns:sodipodi="http://sodipodi.sourceforge.net/DTD/sodipodi-0.dtd"
   xmlns:inkscape="http://www.inkscape.org/namespaces/inkscape"
   inkscape:export-ydpi="240.00000"
   inkscape:export-xdpi="240.00000"
   inkscape:export-filename="/home/jimmac/gfx/novell/pdes/trunk/docs/BIGmime-text.png"
   sodipodi:docname="document-save.svg"
   sodipodi:docbase="/home/marco/Scrivania/UltimateGnome/scalable/actions"
   inkscape:version="0.46"
   sodipodi:version="0.32"
   id="svg249"
   height="48.000000px"
   width="48.000000px"
   inkscape:output_extension="org.inkscape.output.svg.inkscape">
  <defs
     id="defs3">
    <linearGradient
       id="linearGradient3297">
      <stop
         id="stop3299"
         offset="0"
         style="stop-color:#000b43;stop-opacity:1;" />
      <stop
         id="stop3301"
         offset="1"
         style="stop-color:#37d3ff;stop-opacity:1;" />
    </linearGradient>
    <linearGradient
       id="linearGradient3275">
      <stop
         style="stop-color:#92847a;stop-opacity:1;"
         offset="0"
         id="stop3277" />
      <stop
         id="stop3279"
         offset="0.5"
         style="stop-color:#ffffff;stop-opacity:1;" />
      <stop
         style="stop-color:#aea79d;stop-opacity:1;"
         offset="1"
         id="stop3281" />
    </linearGradient>
    <linearGradient
       id="linearGradient3256">
      <stop
         id="stop3258"
         offset="0"
         style="stop-color:#d4d0c7;stop-opacity:1;" />
      <stop
         id="stop3260"
         offset="1"
         style="stop-color:#ffffff;stop-opacity:1;" />
    </linearGradient>
    <linearGradient
       id="linearGradient3193">
      <stop
         id="stop3195"
         offset="0"
         style="stop-color:#000000;stop-opacity:0.53608245;" />
      <stop
         id="stop3197"
         offset="1"
         style="stop-color:#000000;stop-opacity:0;" />
    </linearGradient>
    <linearGradient
       inkscape:collect="always"
       id="linearGradient3197">
      <stop
         style="stop-color:#ffffff;stop-opacity:1;"
         offset="0"
         id="stop3199" />
      <stop
         style="stop-color:#ffffff;stop-opacity:0;"
         offset="1"
         id="stop3201" />
    </linearGradient>
    <linearGradient
       id="linearGradient3260">
      <stop
         id="stop3262"
         offset="0"
         style="stop-color:#ffffff;stop-opacity:1;" />
      <stop
         id="stop3264"
         offset="1"
         style="stop-color:#ffffff;stop-opacity:0.49484536;" />
    </linearGradient>
    <linearGradient
       inkscape:collect="always"
       id="linearGradient23419">
      <stop
         style="stop-color:#000000;stop-opacity:1;"
         offset="0"
         id="stop23421" />
      <stop
         style="stop-color:#000000;stop-opacity:0;"
         offset="1"
         id="stop23423" />
    </linearGradient>
    <filter
       inkscape:collect="always"
       id="filter3193">
      <feGaussianBlur
         inkscape:collect="always"
         stdDeviation="0.10158995"
         id="feGaussianBlur3195" />
    </filter>
    <radialGradient
       inkscape:collect="always"
       xlink:href="#linearGradient23419"
       id="radialGradient2246"
       gradientUnits="userSpaceOnUse"
       gradientTransform="matrix(1,0,0,0.25,0,31.22703)"
       cx="23.334524"
       cy="41.63604"
       fx="23.334524"
       fy="41.63604"
       r="22.627417" />
    <linearGradient
       inkscape:collect="always"
       xlink:href="#linearGradient3297"
       id="linearGradient2256"
       gradientUnits="userSpaceOnUse"
       gradientTransform="translate(1.3752e-2,-8.9331e-3)"
       x1="8.9551706"
       y1="16.143429"
       x2="22.847645"
       y2="14.094857" />
    <linearGradient
       inkscape:collect="always"
       xlink:href="#linearGradient3297"
       id="linearGradient2258"
       gradientUnits="userSpaceOnUse"
       gradientTransform="translate(1.3752e-2,-8.9331e-3)"
       x1="26.47209"
       y1="13.802742"
       x2="36.653488"
       y2="8.3626423" />
    <linearGradient
       inkscape:collect="always"
       xlink:href="#linearGradient3260"
       id="linearGradient2277"
       gradientUnits="userSpaceOnUse"
       x1="9.4056292"
       y1="19.81575"
       x2="38.210445"
       y2="41.430237" />
    <linearGradient
       inkscape:collect="always"
       xlink:href="#linearGradient3260"
       id="linearGradient2286"
       gradientUnits="userSpaceOnUse"
       x1="18.767841"
       y1="1.4865907"
       x2="36.438164"
       y2="17.5" />
    <radialGradient
       inkscape:collect="always"
       xlink:href="#linearGradient3197"
       id="radialGradient2289"
       gradientUnits="userSpaceOnUse"
       gradientTransform="matrix(1.5303555e-2,-0.7742082,0.209047,4.1321735e-3,31.817918,76.984529)"
       cx="48.405941"
       cy="53.150963"
       fx="48.405941"
       fy="53.150963"
       r="20.59375" />
    <radialGradient
       inkscape:collect="always"
       xlink:href="#linearGradient3197"
       id="radialGradient2292"
       gradientUnits="userSpaceOnUse"
       gradientTransform="matrix(2.0501853e-6,-0.3397144,0.2155168,1.3006166e-6,-2.7594578,56.483416)"
       cx="50.518444"
       cy="42.818485"
       fx="50.518444"
       fy="42.818485"
       r="20.59375" />
    <linearGradient
       inkscape:collect="always"
       xlink:href="#linearGradient3197"
       id="linearGradient2295"
       gradientUnits="userSpaceOnUse"
       x1="9.601"
       y1="10.064095"
       x2="33.619186"
       y2="12.205784" />
    <linearGradient
       inkscape:collect="always"
       xlink:href="#linearGradient3193"
       id="linearGradient2299"
       gradientUnits="userSpaceOnUse"
       x1="5.0500002"
       y1="38.250172"
       x2="7.2501259"
       y2="41.008999" />
    <linearGradient
       inkscape:collect="always"
       xlink:href="#linearGradient3260"
       id="linearGradient2302"
       gradientUnits="userSpaceOnUse"
       gradientTransform="translate(0,40)"
       x1="28.8144"
       y1="-34.973816"
       x2="33.59375"
       y2="-25.09375" />
    <linearGradient
       inkscape:collect="always"
       xlink:href="#linearGradient3260"
       id="linearGradient2305"
       gradientUnits="userSpaceOnUse"
       gradientTransform="matrix(1,0,0,1.0263694,-0.59975,41.076816)"
       x1="10.59375"
       y1="-28.402624"
       x2="20.931284"
       y2="-27.500231" />
    <linearGradient
       inkscape:collect="always"
       xlink:href="#linearGradient3260"
       id="linearGradient2310"
       gradientUnits="userSpaceOnUse"
       gradientTransform="translate(1.3752e-2,-8.9331e-3)"
       x1="3.6788144"
       y1="1.9768898"
       x2="44.823242"
       y2="42.53656" />
    <linearGradient
       inkscape:collect="always"
       xlink:href="#linearGradient3256"
       id="linearGradient2313"
       gradientUnits="userSpaceOnUse"
       x1="9.4056292"
       y1="19.81575"
       x2="38.210445"
       y2="41.430237" />
    <linearGradient
       inkscape:collect="always"
       xlink:href="#linearGradient3275"
       id="linearGradient2316"
       gradientUnits="userSpaceOnUse"
       x1="22.612532"
       y1="4.3531318"
       x2="39.045437"
       y2="18.239347" />
    <linearGradient
       inkscape:collect="always"
       xlink:href="#linearGradient3297"
       id="linearGradient2319"
       gradientUnits="userSpaceOnUse"
       x1="3.6788144"
       y1="1.9768898"
       x2="44.823242"
       y2="42.53656" />
  </defs>
  <sodipodi:namedview
     inkscape:window-y="25"
     inkscape:window-x="0"
     inkscape:window-height="944"
     inkscape:window-width="1270"
     inkscape:document-units="px"
     inkscape:grid-bbox="true"
     showgrid="true"
     inkscape:current-layer="layer5"
     inkscape:cy="23.792881"
     inkscape:cx="25.679011"
     inkscape:zoom="5.369592"
     inkscape:pageshadow="2"
     inkscape:pageopacity="0.0"
     borderopacity="1"
     bordercolor="#666"
     pagecolor="#ffffff"
     id="base"
     inkscape:showpageshadow="false"
     showguides="true"
     inkscape:guide-bbox="true" />
  <metadata
     id="metadata4">
    <rdf:RDF>
      <cc:Work
         rdf:about="">
        <dc:format>image/svg+xml</dc:format>
        <dc:type
           rdf:resource="http://purl.org/dc/dcmitype/StillImage" />
        <dc:title />
        <dc:date />
        <dc:creator>
          <cc:Agent>
            <dc:title>Marco Tessarotto</dc:title>
          </cc:Agent>
        </dc:creator>
        <dc:subject>
          <rdf:Bag />
        </dc:subject>
        <dc:publisher>
          <cc:Agent>
            <dc:title />
          </cc:Agent>
        </dc:publisher>
        <cc:license
           rdf:resource="http://creativecommons.org/licenses/GPL/2.0/" />
        <dc:contributor>
          <cc:Agent>
            <dc:title />
          </cc:Agent>
        </dc:contributor>
      </cc:Work>
    </rdf:RDF>
  </metadata>
  <g
     inkscape:groupmode="layer"
     id="layer6"
     inkscape:label="Shadow" />
  <g
     inkscape:groupmode="layer"
     id="layer5"
     inkscape:label="file"
     style="display:inline">
    <path
       sodipodi:type="arc"
       style="opacity:0.25;color:#000000;fill:url(#radialGradient2246);fill-opacity:1;fill-rule:evenodd;stroke:none;stroke-width:2;stroke-linecap:butt;stroke-linejoin:miter;marker:none;marker-start:none;marker-mid:none;marker-end:none;stroke-miterlimit:4;stroke-dasharray:none;stroke-dashoffset:0;stroke-opacity:1;visibility:visible;display:inline;overflow:visible"
       id="path23417"
       sodipodi:cx="23.334524"
       sodipodi:cy="41.63604"
       sodipodi:rx="22.627417"
       sodipodi:ry="5.6568542"
       d="M 45.961941 41.63604 A 22.627417 5.6568542 0 1 1  0.70710754,41.63604 A 22.627417 5.6568542 0 1 1  45.961941 41.63604 z"
       inkscape:r_cx="true"
       inkscape:r_cy="true"
       transform="matrix(0.8928579,0,0,0.9038679,3.4291931,4.587175)" />
    <path
       style="fill:url(#linearGradient2319);fill-opacity:1.0;stroke:#000000;stroke-width:0.5;stroke-miterlimit:4;stroke-dasharray:none;stroke-opacity:1"
       d="M 4.65625,1.3125 C 3.8820739,1.3125 3.25,1.9570607 3.25,2.71875 L 3.25,42.0625 C 3.2499999,42.824187 3.882074,43.4375 4.65625,43.4375 L 45,43.4375 C 45.580459,43.437499 46.0625,42.97769 46.0625,42.40625 L 46.0625,5.46875 C 44.372675,3.6333732 43.486302,2.766684 41.84375,1.3125 L 39.84375,1.3125 C 39.387876,1.6384093 39.1903,1.9276281 38.71875,2.28125 C 38.171635,2.2812499 10.053931,2.28125 9.78125,2.28125 C 9.5352397,1.8731281 9.3975626,1.7315262 9.125,1.3125 L 4.65625,1.3125 z M 41.59375,38.5 L 44.09375,38.5 L 44.09375,41 L 41.59375,41 L 41.59375,38.5 z "
       id="path3544" />
    <path
       style="fill:url(#linearGradient2316);fill-opacity:1;stroke:#000000;stroke-width:0.30000001;stroke-miterlimit:4;stroke-dasharray:none;stroke-opacity:1"
       d="M 39.045436,1.1013946 L 18.364949,1.0548361 L 18.329154,17.894067 C 18.329154,18.084662 18.486375,18.239348 18.680095,18.239348 L 38.683732,18.239348 C 38.877451,18.239348 39.034673,18.084662 39.034673,17.894067 L 39.045436,1.1013946 z M 34.121499,3.7375583 L 34.121499,15.477102 L 28.506443,15.477102 L 28.506443,3.7375583 L 34.121499,3.7375583 z "
       id="path3571"
       sodipodi:nodetypes="cccccccccccc" />
    <path
       style="fill:url(#linearGradient2313);fill-opacity:1;stroke:#000000;stroke-width:0.30000001;stroke-miterlimit:4;stroke-dasharray:none;stroke-opacity:1"
       d="M 39.73655,41.718435 C 39.73655,42.098589 39.42071,42.408997 39.03467,42.408997 L 10.257511,42.408997 C 9.871476,42.408997 9.555629,42.098589 9.555629,41.718435 L 9.555629,20.656313 C 9.555629,20.276504 9.871476,19.965751 10.257511,19.965751 L 39.03467,19.965751 C 39.42071,19.965751 39.73655,20.276504 39.73655,20.656313 L 39.73655,41.718435 z "
       id="path3594" />
    <path
       style="opacity:0.467033;fill:url(#linearGradient2310);fill-opacity:1;stroke:none;stroke-width:0.60000002;stroke-miterlimit:4;stroke-dasharray:none;stroke-opacity:1;display:inline"
       d="M 4.65625,1.75 C 4.1184274,1.7500021 3.6875,2.1733897 3.6875,2.6875 L 3.6875,35.5625 C 5.4278682,34.237283 7.2557187,33.014249 9.15625,31.875 L 9.15625,20.625 C 9.15625,20.008384 9.6574118,19.5 10.28125,19.5 L 39.0625,19.5 C 39.686336,19.500002 40.1875,20.008387 40.1875,20.625 L 40.1875,23.03125 C 40.691323,23.01971 41.180648,23 41.6875,23 C 43.007407,23 44.326456,23.047494 45.625,23.125 L 45.625,5.65625 C 44.053402,3.9533204 43.215262,3.1059731 41.6875,1.75 L 40.0625,1.75 C 39.845766,1.9112112 39.68564,2.0787809 39.5,2.25 L 39.5,17.875 C 39.5,18.300446 39.148345,18.65625 38.71875,18.65625 L 21.75,18.65625 L 21.71875,18.65625 C 21.668955,18.675929 21.616033,18.686513 21.5625,18.6875 L 18.8125,18.65625 L 18.6875,18.65625 L 10.5625,18.5625 C 10.225634,18.569029 9.8594585,18.486758 9.5625,18.21875 C 9.2655415,17.950742 9.0888592,17.55691 9.03125,17.03125 C 9.0297936,17.010442 9.0297936,16.989558 9.03125,16.96875 L 9.03125,1.9375 C 8.9910693,1.8792093 8.9487934,1.8148873 8.90625,1.75 L 4.65625,1.75 z M 6.375,4 L 7.8125,6.03125 L 6.96875,6.03125 L 6.96875,7.34375 L 5.59375,7.3125 L 5.59375,6.03125 L 4.8125,6.03125 L 6.375,4 z "
       id="path3266" />
    <path
       sodipodi:type="inkscape:offset"
       inkscape:radius="-0.18027389"
       inkscape:original="M 9.9375 2.28125 L 10.03125 16.9375 C 10.02671 17.234985 9.928282 17.578769 10.59375 17.625 L 18.34375 17.71875 L 18.375 2.28125 C 14.903314 2.2812499 10.156026 2.28125 9.9375 2.28125 z "
       style="fill:url(#linearGradient2256);fill-opacity:1.0;stroke:none;stroke-width:0.60000002;stroke-miterlimit:4;stroke-dasharray:none;stroke-opacity:1;display:inline"
       id="path3270"
       d="M 10.125,2.46875 L 10.21875,16.9375 C 10.216193,17.105058 10.191883,17.252795 10.21875,17.3125 C 10.232183,17.342353 10.259189,17.347561 10.3125,17.375 C 10.365811,17.402439 10.4431,17.427034 10.59375,17.4375 L 18.15625,17.53125 L 18.1875,2.46875 C 14.818676,2.4687499 10.523407,2.46875 10.125,2.46875 z "
       transform="translate(-0.4,0.49975)" />
    <path
       sodipodi:type="inkscape:offset"
       inkscape:radius="-0.46558473"
       inkscape:original="M 28.53125 3.71875 L 28.53125 15.46875 L 34.15625 15.46875 L 34.15625 3.71875 L 28.53125 3.71875 z "
       style="fill:url(#linearGradient2258);fill-opacity:1.0;stroke:none;stroke-width:0.60000002;stroke-miterlimit:4;stroke-dasharray:none;stroke-opacity:1;display:inline"
       id="path3292"
       d="M 29,4.1875 L 29,15 L 33.6875,15 L 33.6875,4.1875 L 29,4.1875 z " />
    <path
       style="opacity:0.40109893;fill:url(#linearGradient2305);fill-opacity:1;stroke:none;stroke-width:0.60000002;stroke-miterlimit:4;stroke-dasharray:none;stroke-opacity:1;display:inline"
       d="M 10,3.03125 L 10.0625,11.46875 C 12.358397,10.933122 14.700897,10.486871 17.125,10.125 L 17.125,3.03125 C 14.055445,3.0312501 10.749771,3.03125 10,3.03125 z "
       id="path3282" />
    <path
       style="opacity:0.41818183;fill:url(#linearGradient2302);fill-opacity:1;stroke:none;stroke-width:0.60000002;stroke-miterlimit:4;stroke-dasharray:none;stroke-opacity:1;display:inline"
       d="M 29.375,4.5625 L 29.375,8.6875 C 30.293417,8.6146801 31.219438,8.5625 32.15625,8.5625 C 32.550093,8.5625 32.921769,8.5807388 33.3125,8.59375 L 33.3125,4.5625 L 29.375,4.5625 z "
       id="path3304" />
    <rect
       style="fill:url(#linearGradient2299);fill-opacity:1;stroke:#000000;stroke-width:0.273;stroke-miterlimit:4;stroke-dasharray:none;stroke-opacity:1"
       id="rect3308"
       width="2.4858274"
       height="2.4858274"
       x="5.1865001"
       y="38.386673" />
    <path
       style="fill:none;fill-rule:evenodd;stroke:#000000;stroke-width:0.30000001;stroke-linecap:butt;stroke-linejoin:miter;stroke-miterlimit:4;stroke-dasharray:none;stroke-opacity:1"
       d="M 9.4513697,2.0002305 L 9.4979281,17.186234 C 9.4783388,18.203179 10.001679,18.227381 11.093117,18.186234 L 18.769221,18.232792"
       id="path3321"
       sodipodi:nodetypes="cccc" />
    <path
       style="opacity:0.53939394;fill:none;fill-rule:evenodd;stroke:url(#linearGradient2295);stroke-width:0.5;stroke-linecap:butt;stroke-linejoin:miter;stroke-miterlimit:4;stroke-dasharray:none;stroke-opacity:1;display:inline;filter:url(#filter3193)"
       d="M 9.851,2.4311893 L 9.8975584,16.686023 C 9.8779691,17.702968 9.9357253,17.72717 11.492748,17.686023 L 18.237683,17.686023"
       id="path3323"
       sodipodi:nodetypes="cccc" />
    <path
       id="path3293"
       style="opacity:0.40659341;fill:url(#radialGradient2292);fill-opacity:1;stroke:none;stroke-width:0.60000002;stroke-miterlimit:4;stroke-opacity:1;display:inline"
       d="M 8.375,33.3125 C 7.0310483,34.149229 5.7160441,35.004537 4.46875,35.9375 L 4.46875,38.21875 C 4.5340434,37.918209 4.7472737,37.676245 5.0625,37.625 C 5.0723251,37.614008 5.0827581,37.603575 5.09375,37.59375 C 5.1258901,37.591042 5.1552958,37.592396 5.1875,37.59375 C 5.1982347,37.594201 5.2080366,37.592847 5.21875,37.59375 L 7.6875,37.59375 C 7.8526373,37.592555 8.0645129,37.627013 8.25,37.8125 C 8.3534352,37.915935 8.348065,38.017618 8.375,38.125 L 8.375,33.3125 z M 4.46875,41.03125 L 4.46875,42.0625 C 4.46875,42.152465 4.5109045,42.21875 4.65625,42.21875 L 8.46875,42.21875 C 8.4180451,42.052476 8.375,41.870806 8.375,41.6875 L 8.375,41.125 C 8.3480623,41.231597 8.3534356,41.334064 8.25,41.4375 C 8.0645132,41.622986 7.8526373,41.657445 7.6875,41.65625 L 5.1875,41.65625 C 5.0223627,41.657445 4.8104871,41.622987 4.625,41.4375 C 4.4912304,41.30373 4.4859772,41.165267 4.46875,41.03125 z " />
    <path
       id="path3295"
       style="opacity:0.40659341;fill:url(#radialGradient2289);fill-opacity:1;stroke:none;stroke-width:0.60000002;stroke-miterlimit:4;stroke-opacity:1;display:inline"
       d="M 41.6875,23.78125 C 41.458526,23.78125 41.208527,23.803689 40.96875,23.8125 L 40.96875,38.09375 C 41.083354,37.915999 41.247066,37.786038 41.46875,37.75 C 41.478575,37.739008 41.489008,37.728575 41.5,37.71875 C 41.532139,37.716043 41.561546,37.717396 41.59375,37.71875 C 41.604485,37.719201 41.614287,37.717848 41.625,37.71875 L 44.09375,37.71875 C 44.258887,37.717555 44.470762,37.752012 44.65625,37.9375 C 44.811403,38.092653 44.834559,38.256788 44.84375,38.40625 L 44.84375,23.90625 C 43.788902,23.849547 42.744688,23.78125 41.6875,23.78125 z M 44.84375,41.09375 C 44.834556,41.242558 44.811403,41.407347 44.65625,41.5625 C 44.470762,41.747988 44.258887,41.782445 44.09375,41.78125 L 41.59375,41.78125 C 41.428613,41.782445 41.216738,41.747988 41.03125,41.5625 C 40.979532,41.510782 40.998435,41.460573 40.96875,41.40625 L 40.96875,41.6875 C 40.96875,41.870806 40.925705,42.052477 40.875,42.21875 L 44.84375,42.21875 L 44.84375,41.09375 z " />
    <path
       style="opacity:0.56666667;fill:url(#linearGradient2286);fill-opacity:1;stroke:none;stroke-width:0.30000001;stroke-miterlimit:4;stroke-dasharray:none;stroke-opacity:1;display:inline"
       d="M 18.752532,1.3934737 L 19.09375,17.5 L 20.5,17.5 C 22.390863,14.318873 24.846929,11.51801 27.75,9.25 L 27.75,3.75 C 27.745509,3.3578106 28.046401,3.0295646 28.4375,3 C 28.458324,2.9991241 28.479176,2.9991241 28.5,3 L 34.125,3 C 34.324436,2.9982761 34.515222,3.0777223 34.65625,3.21875 C 34.797276,3.3597777 34.876724,3.5505641 34.875,3.75 L 34.875,5.15625 C 35.976784,4.710822 37.118438,4.3431976 38.28125,4.03125 L 38.28125,1.84375 L 18.752532,1.3934737 z "
       id="path3233"
       sodipodi:nodetypes="cccccsccsccccc" />
    <path
       style="opacity:0.44242422;fill:none;fill-rule:evenodd;stroke:#000000;stroke-width:0.52133775;stroke-linecap:butt;stroke-linejoin:miter;stroke-miterlimit:4;stroke-dasharray:none;stroke-opacity:1"
       d="M 12.302195,24.939971 L 36.863552,25.125769"
       id="path3262" />
    <path
       style="opacity:0.44242422;fill:none;fill-rule:evenodd;stroke:#000000;stroke-width:0.52133775;stroke-linecap:butt;stroke-linejoin:miter;stroke-miterlimit:4;stroke-dasharray:none;stroke-opacity:1;display:inline"
       d="M 12.302195,33.920195 L 36.863552,34.105993"
       id="path3264" />
    <path
       style="opacity:0.44242422;fill:none;fill-rule:evenodd;stroke:#000000;stroke-width:0.52133775;stroke-linecap:butt;stroke-linejoin:miter;stroke-miterlimit:4;stroke-dasharray:none;stroke-opacity:1;display:inline"
       d="M 12.302195,29.430083 L 36.863552,29.615881"
       id="path3269" />
    <path
       style="opacity:0.66666667;fill:none;fill-rule:evenodd;stroke:#000000;stroke-width:0.30000001;stroke-linecap:butt;stroke-linejoin:miter;stroke-miterlimit:4;stroke-dasharray:none;stroke-opacity:1"
       d="M 9.5444869,41.435256 L 9.4979284,43.441298"
       id="path3271"
       sodipodi:nodetypes="cc" />
    <path
       style="opacity:0.66666667;fill:none;fill-rule:evenodd;stroke:#000000;stroke-width:0.30000001;stroke-linecap:butt;stroke-linejoin:miter;stroke-miterlimit:4;stroke-dasharray:none;stroke-opacity:1;display:inline"
       d="M 39.749559,41.349958 L 39.703,43.356"
       id="path3273"
       sodipodi:nodetypes="cc" />
    <path
       style="opacity:0.61212122;fill:none;fill-rule:evenodd;stroke:#000000;stroke-width:0.2;stroke-linecap:butt;stroke-linejoin:miter;stroke-miterlimit:4;stroke-dasharray:none;stroke-opacity:1"
       d="M 5.5870165,6.0465584 L 5.5870165,7.3016229 L 6.9837706,7.3481813 L 6.9837706,6.0465584 L 7.807,6.0465584 L 6.3657017,4 L 4.807,6.0465584 L 5.5870165,6.0465584 z "
       id="path2231"
       sodipodi:nodetypes="cccccccc" />
    <path
       style="opacity:0.6454545;fill:url(#linearGradient2277);fill-opacity:1;stroke:none;stroke-width:0.30000001;stroke-miterlimit:4;stroke-dasharray:none;stroke-opacity:1;display:inline"
       d="M 10.25,20.53125 C 10.160842,20.53125 10.125,20.572079 10.125,20.65625 L 10.125,41.71875 C 10.125,41.803534 10.160509,41.84375 10.25,41.84375 L 12.09375,41.84375 C 17.18223,31.614188 27.291528,24.298861 39.1875,23.15625 L 39.1875,20.65625 C 39.1875,20.602722 39.120411,20.53125 39.03125,20.53125 L 10.25,20.53125 z "
       id="path3206" />
  </g>
</svg>
